<?xml version="1.0" standalone="no"?>
<!DOCTYPE svg PUBLIC "-//W3C//DTD SVG 20010904//EN"
 "http://www.w3.org/TR/2001/REC-SVG-20010904/DTD/svg10.dtd">
<svg version="1.0" xmlns="http://www.w3.org/2000/svg"
 width="1280.000000pt" height="640.000000pt" viewBox="0 0 1280.000000 640.000000"
 preserveAspectRatio="xMidYMid meet">
<metadata>
Created by potrace 1.15, written by Peter Selinger 2001-2017
</metadata>
<g transform="translate(0.000000,640.000000) scale(0.100000,-0.100000)"
fill="#ffffff" stroke="none">
<path d="M7612 5840 c-68 -20 -104 -38 -138 -66 -84 -71 -75 -69 -151 -38 -64
25 -71 26 -127 15 -127 -26 -261 -112 -513 -329 -191 -163 -442 -462 -561
-667 -90 -155 -206 -256 -370 -319 -85 -33 -168 -45 -309 -46 -88 0 -111 4
-180 30 -43 16 -206 76 -363 134 -384 140 -838 307 -1165 427 -236 87 -286
102 -401 120 l-132 20 -413 -25 c-228 -15 -565 -35 -749 -47 -993 -61 -1066
-67 -1235 -102 -88 -19 -153 -37 -145 -41 8 -3 154 -53 325 -110 l310 -103
-65 -7 c-63 -6 -657 -46 -693 -46 -13 0 -17 -6 -15 -22 3 -20 29 -27 348 -98
190 -42 351 -79 359 -81 8 -3 -100 -13 -240 -22 -994 -68 -969 -65 -969 -88 0
-23 -44 -14 505 -110 253 -44 460 -81 462 -82 1 -2 -174 -31 -390 -66 -216
-34 -400 -65 -409 -68 -16 -4 -27 -43 -12 -43 11 0 528 -81 539 -84 6 -2 -63
-40 -152 -85 -148 -74 -182 -99 -155 -114 6 -4 531 33 650 46 17 1 32 2 32 1
0 -1 -97 -78 -215 -171 l-215 -168 278 -5 278 -5 -133 -124 c-118 -110 -132
-127 -119 -140 13 -13 52 -2 322 88 169 56 308 100 310 98 2 -1 -55 -48 -126
-102 -71 -55 -129 -102 -129 -105 -1 -3 3 -11 8 -19 8 -12 45 -6 232 42 122
32 223 56 225 55 1 -2 -52 -65 -117 -140 -66 -76 -116 -138 -110 -138 5 0 92
23 193 51 199 55 361 99 366 99 1 0 -14 -32 -34 -71 -19 -39 -34 -72 -32 -74
2 -2 691 148 826 180 18 4 4 -18 -62 -97 -47 -56 -86 -105 -86 -108 0 -4 144
-19 320 -35 215 -19 319 -32 316 -39 -35 -82 -76 -189 -73 -192 2 -2 65 19
141 46 76 28 140 50 141 50 2 0 11 -35 21 -77 10 -43 19 -80 20 -82 2 -1 48
33 103 78 55 45 104 81 108 81 5 0 87 -33 184 -74 l176 -74 176 48 175 49 74
-20 c99 -28 439 -119 442 -119 2 0 13 86 27 190 13 105 26 190 29 190 3 0 26
-45 50 -100 25 -55 48 -100 51 -100 3 0 32 57 64 128 32 70 62 131 65 135 8 9
120 40 125 35 4 -4 165 -865 165 -883 0 -9 -227 -322 -505 -696 -278 -373
-505 -682 -505 -684 0 -3 78 -5 173 -5 l174 0 18 -80 c15 -64 22 -79 34 -76 9
3 103 26 209 51 l193 45 112 -65 c62 -36 118 -65 124 -65 6 0 66 32 133 70 67
39 125 70 129 70 3 0 30 -31 59 -70 29 -38 57 -70 62 -70 6 0 91 41 190 90 99
50 186 90 193 90 7 0 59 -34 115 -75 56 -41 104 -75 106 -75 2 0 29 34 60 75
31 41 61 75 66 75 5 0 114 -40 242 -90 128 -49 239 -90 247 -90 7 0 42 30 77
66 l64 65 147 -16 c82 -8 162 -18 179 -20 31 -5 31 -5 50 65 l18 70 262 0 262
0 -474 691 -474 691 0 112 c0 158 -23 238 -87 313 -88 103 -83 85 -83 296 l0
189 33 -6 c17 -3 93 -15 167 -27 l136 -21 39 -69 c21 -38 43 -69 47 -69 5 0
23 7 39 16 17 8 32 14 34 12 2 -3 172 -325 219 -416 l17 -33 65 85 c35 47 66
86 67 86 1 1 218 22 482 49 l480 48 77 -54 c42 -29 79 -53 82 -53 3 0 6 41 6
90 0 50 2 90 5 90 3 0 53 -31 110 -70 57 -38 107 -70 110 -70 3 0 5 38 5 83
l0 84 345 49 344 49 -60 103 c-34 57 -59 105 -57 107 4 4 707 -147 751 -161
22 -7 22 -12 -13 97 -17 50 -29 93 -27 95 2 2 73 -45 158 -105 85 -60 155
-108 156 -107 2 1 -19 68 -46 149 -27 81 -47 147 -43 147 4 0 92 -30 195 -66
258 -90 273 -81 113 66 -57 52 -99 96 -92 98 6 1 150 -18 321 -42 170 -25 311
-43 313 -42 1 2 -53 68 -122 147 l-125 144 285 5 285 5 -191 125 c-106 69
-201 129 -211 134 -10 5 -19 13 -19 18 0 4 153 8 340 8 322 0 340 1 340 18 0
14 -28 31 -112 67 -62 27 -117 51 -121 55 -4 4 54 19 130 35 363 74 348 70
351 93 2 12 -1 22 -6 22 -14 0 -975 200 -979 203 -1 2 146 21 327 42 315 37
330 40 330 60 0 20 -15 23 -287 59 -159 21 -290 40 -292 42 -2 2 7 6 20 9 47
10 1028 215 1034 215 3 0 5 9 5 20 0 25 23 25 -470 -4 -217 -14 -396 -23 -397
-22 -2 2 112 56 252 122 219 102 255 122 253 139 -3 19 -13 20 -148 27 -909
41 -1218 62 -2110 142 -216 20 -284 22 -365 15 -124 -12 -276 -55 -403 -115
-53 -25 -466 -175 -917 -335 l-820 -289 -103 0 c-85 0 -110 4 -145 21 -23 12
-43 23 -45 24 -2 1 13 105 33 231 29 181 41 236 60 264 12 20 34 59 49 87 28
57 85 107 163 147 41 20 67 26 118 26 36 0 65 3 65 6 0 19 -57 93 -86 112 -38
25 -115 30 -188 11 -24 -6 -55 -9 -70 -7 -27 3 -26 4 23 41 28 21 93 63 143
93 l92 56 70 -21 c49 -14 73 -17 77 -9 4 6 12 37 19 69 12 54 11 64 -9 117
-60 157 -118 180 -309 122z"/>
</g>
</svg>
